<?xml version="1.0" encoding="UTF-8" standalone="no"?>
<!-- Created with Inkscape (http://www.inkscape.org/) -->

<svg
   xmlns:dc="http://purl.org/dc/elements/1.1/"
   xmlns:cc="http://creativecommons.org/ns#"
   xmlns:rdf="http://www.w3.org/1999/02/22-rdf-syntax-ns#"
   xmlns:svg="http://www.w3.org/2000/svg"
   xmlns="http://www.w3.org/2000/svg"
   version="1.1"
   width="256"
   height="256"
   id="svg2">
  <defs
     id="defs4" />
  <metadata
     id="metadata7">
    <rdf:RDF>
      <cc:Work
         rdf:about="">
        <dc:format>image/svg+xml</dc:format>
        <dc:type
           rdf:resource="http://purl.org/dc/dcmitype/StillImage" />
        <dc:title></dc:title>
      </cc:Work>
    </rdf:RDF>
  </metadata>
  <g
     transform="translate(0,-796.36218)"
     id="layer1">
    <path
       d="M 128,1 C 57.855554,1 1,57.85555 1,128 c 0,70.14445 56.855554,127 127,127 70.14445,0 127,-56.85555 127,-127 0,-33.728255 -13.1464,-64.385182 -34.59375,-87.125 l 0,93.65625 7.96875,-4.75 12.28125,20.625 -53.28125,31.6875 -12.28125,-20.625 33.3125,-19.8125 0,-111.96875 C 186.50879,11.756916 158.51255,1 128,1 z m 0,101.6875 c 13.97409,0 25.3125,11.33841 25.3125,25.3125 0,13.97409 -11.33841,25.3125 -25.3125,25.3125 -13.97409,0 -25.3125,-11.33841 -25.3125,-25.3125 0,-13.97409 11.33841,-25.3125 25.3125,-25.3125 z"
       transform="translate(0,796.36218)"
       id="path2985"
       style="fill:#734a08;fill-opacity:1;stroke:#734a08;stroke-width:1.98449612;stroke-linecap:butt;stroke-linejoin:miter;stroke-miterlimit:0.40000001;stroke-opacity:1;stroke-dasharray:none;stroke-dashoffset:0" />
  </g>
</svg>
